<svg xmlns="http://www.w3.org/2000/svg" width="43" height="61" fill="none" viewBox="0 0 43 61">
  <path fill="#fff" d="M31.35 44.6c-2.96 0-5.52-.52-7.68-1.56-2.133-1.067-3.773-2.587-4.92-4.56-1.146-1.973-1.72-4.32-1.72-7.04 0-2.853.6-5.373 1.8-7.56a12.854 12.854 0 015.12-5.08c2.214-1.2 4.76-1.8 7.64-1.8 1.654 0 3.214.187 4.68.56 1.494.373 2.814.907 3.96 1.6l-1.4 4.8c-1.04-.64-2.2-1.133-3.48-1.48a13.392 13.392 0 00-3.76-.56c-1.76 0-3.32.387-4.68 1.16-1.333.747-2.373 1.813-3.12 3.2-.72 1.36-1.08 2.947-1.08 4.76 0 2.667.8 4.773 2.4 6.32 1.627 1.52 3.84 2.28 6.64 2.28 1.12 0 2.16-.08 3.12-.24v-5.52h-3.36V29.2h8.68v13.84c-2.746 1.04-5.693 1.56-8.84 1.56z"/>
  <path fill="#fff" d="M8.635 16.48c4.267 0 7.6 1.147 10 3.44 2.4 2.293 3.6 5.533 3.6 9.72 0 2.853-.56 5.373-1.68 7.56-1.147 2.187-2.76 3.867-4.84 5.04-2.08 1.2-4.48 1.8-7.2 1.8-2.213 0-4.347-.4-6.4-1.2l1.08-5.16c1.813.827 3.573 1.24 5.28 1.24 2.427 0 4.347-.8 5.76-2.4 1.413-1.573 2.12-3.68 2.12-6.32 0-2.693-.747-4.787-2.24-6.28-1.493-1.493-3.56-2.24-6.2-2.24-1.733 0-3.413.28-5.04.84l-.88-4.92c1.947-.747 4.16-1.12 6.64-1.12z"/>
</svg>
