<svg xmlns="http://www.w3.org/2000/svg" width="277" height="19" fill="none" viewBox="0 0 277 19">
  <path fill="#F0F0F0" fill-opacity=".95" d="M9.918 18.39c-1.924 0-3.588-.338-4.992-1.014-1.386-.693-2.452-1.681-3.198-2.964C.983 13.129.61 11.604.61 9.836c0-1.855.39-3.493 1.17-4.914A8.356 8.356 0 015.108 1.62C6.548.84 8.202.45 10.074.45c1.075 0 2.09.121 3.042.364.971.243 1.83.59 2.574 1.04l-.91 3.12a8.556 8.556 0 00-2.262-.962 8.703 8.703 0 00-2.444-.364c-1.144 0-2.158.251-3.042.754a5.098 5.098 0 00-2.028 2.08c-.468.884-.702 1.915-.702 3.094 0 1.733.52 3.103 1.56 4.108 1.058.988 2.496 1.482 4.316 1.482.728 0 1.404-.052 2.028-.156v-3.588h-2.184V8.38h5.642v8.996c-1.785.676-3.7 1.014-5.746 1.014zM19.057.684c.52-.017 1.49-.026 2.912-.026 1.438 0 2.418.009 2.938.026 1.976.07 3.45.555 4.42 1.456.97.884 1.456 2.08 1.456 3.588 0 1.283-.33 2.375-.988 3.276-.642.884-1.543 1.465-2.704 1.742.364.295.736.702 1.118 1.222.381.503.91 1.291 1.586 2.366A73.708 73.708 0 0131.953 18h-4.368l-2.938-5.46c-.312-.572-.598-.927-.858-1.066-.243-.156-.616-.234-1.118-.234V18h-3.614V.684zm5.226 7.67c.884 0 1.577-.225 2.08-.676.52-.45.78-1.057.78-1.82 0-.693-.226-1.222-.676-1.586-.45-.364-1.11-.546-1.976-.546h-1.82v4.628h1.612zm17.253 9.984c-1.699 0-3.198-.373-4.498-1.118-1.3-.745-2.314-1.794-3.042-3.146-.711-1.352-1.066-2.903-1.066-4.654 0-1.768.355-3.328 1.066-4.68a7.649 7.649 0 013.016-3.146C38.312.849 39.82.476 41.536.476c1.698 0 3.198.373 4.498 1.118a7.518 7.518 0 013.016 3.094c.71 1.335 1.066 2.877 1.066 4.628 0 1.785-.356 3.363-1.066 4.732a7.82 7.82 0 01-3.016 3.172c-1.3.745-2.8 1.118-4.498 1.118zm0-3.302c1.421 0 2.556-.511 3.406-1.534.866-1.023 1.3-2.383 1.3-4.082 0-1.11-.2-2.089-.598-2.938-.382-.867-.936-1.525-1.664-1.976-.711-.468-1.526-.702-2.444-.702-.919 0-1.742.234-2.47.702-.711.45-1.266 1.11-1.664 1.976-.382.85-.572 1.829-.572 2.938 0 1.11.19 2.089.572 2.938.398.85.953 1.508 1.664 1.976.71.468 1.534.702 2.47.702zm18.876 3.302c-1.438 0-2.704-.303-3.796-.91a6.434 6.434 0 01-2.548-2.548c-.59-1.11-.884-2.383-.884-3.822V.684h3.796v10.088c0 1.283.304 2.305.91 3.068.624.745 1.465 1.118 2.522 1.118 1.058 0 1.898-.373 2.522-1.118.624-.763.936-1.785.936-3.068V.684h3.77v10.374c0 1.439-.303 2.713-.91 3.822a6.264 6.264 0 01-2.522 2.548c-1.092.607-2.357.91-3.796.91zM71.288.684c.502-.017 1.456-.026 2.86-.026 1.421 0 2.383.009 2.886.026 1.785.035 3.19.511 4.212 1.43 1.022.919 1.534 2.193 1.534 3.822 0 1.161-.26 2.193-.78 3.094-.52.884-1.257 1.569-2.21 2.054-.936.485-2.002.728-3.198.728h-1.69V18h-3.614V.684zm5.148 8.06c.85 0 1.508-.243 1.976-.728.485-.485.728-1.144.728-1.976 0-1.525-.84-2.288-2.522-2.288h-1.716v4.992h1.534zm22.362 9.594c-2.774 0-4.94-.745-6.5-2.236-1.56-1.49-2.34-3.597-2.34-6.318 0-1.855.364-3.493 1.092-4.914.745-1.421 1.794-2.513 3.146-3.276 1.352-.78 2.912-1.17 4.68-1.17 1.438 0 2.825.26 4.16.78l-.702 3.354c-1.179-.537-2.323-.806-3.432-.806-1.578 0-2.826.52-3.744 1.56-.92 1.023-1.378 2.392-1.378 4.108 0 1.75.485 3.111 1.456 4.082.97.97 2.314 1.456 4.03 1.456 1.126 0 2.218-.182 3.276-.546l.572 3.198c-1.266.485-2.704.728-4.316.728zm14.872 0c-1.698 0-3.198-.373-4.498-1.118-1.3-.745-2.314-1.794-3.042-3.146-.71-1.352-1.066-2.903-1.066-4.654 0-1.768.356-3.328 1.066-4.68a7.65 7.65 0 013.016-3.146c1.3-.745 2.808-1.118 4.524-1.118 1.699 0 3.198.373 4.498 1.118a7.515 7.515 0 013.016 3.094c.711 1.335 1.066 2.877 1.066 4.628 0 1.785-.355 3.363-1.066 4.732a7.817 7.817 0 01-3.016 3.172c-1.3.745-2.799 1.118-4.498 1.118zm0-3.302c1.422 0 2.557-.511 3.406-1.534.867-1.023 1.3-2.383 1.3-4.082 0-1.11-.199-2.089-.598-2.938-.381-.867-.936-1.525-1.664-1.976-.71-.468-1.525-.702-2.444-.702-.918 0-1.742.234-2.47.702-.71.45-1.265 1.11-1.664 1.976-.381.85-.572 1.829-.572 2.938 0 1.11.191 2.089.572 2.938.399.85.954 1.508 1.664 1.976.711.468 1.534.702 2.47.702zm19.653 3.302c-1.699 0-3.198-.373-4.498-1.118-1.3-.745-2.314-1.794-3.042-3.146-.711-1.352-1.066-2.903-1.066-4.654 0-1.768.355-3.328 1.066-4.68a7.644 7.644 0 013.016-3.146c1.3-.745 2.808-1.118 4.524-1.118 1.698 0 3.198.373 4.498 1.118a7.52 7.52 0 013.016 3.094c.71 1.335 1.066 2.877 1.066 4.628 0 1.785-.356 3.363-1.066 4.732a7.823 7.823 0 01-3.016 3.172c-1.3.745-2.8 1.118-4.498 1.118zm0-3.302c1.421 0 2.556-.511 3.406-1.534.866-1.023 1.3-2.383 1.3-4.082 0-1.11-.2-2.089-.598-2.938-.382-.867-.936-1.525-1.664-1.976-.711-.468-1.526-.702-2.444-.702-.919 0-1.742.234-2.47.702-.711.45-1.266 1.11-1.664 1.976-.382.85-.572 1.829-.572 2.938 0 1.11.19 2.089.572 2.938.398.85.953 1.508 1.664 1.976.71.468 1.534.702 2.47.702zM144.664.684c.52-.017 1.491-.026 2.912-.026 1.439 0 2.418.009 2.938.026 1.976.07 3.45.555 4.42 1.456.971.884 1.456 2.08 1.456 3.588 0 1.283-.329 2.375-.988 3.276-.641.884-1.542 1.465-2.704 1.742.364.295.737.702 1.118 1.222.382.503.91 1.291 1.586 2.366A73.475 73.475 0 01157.56 18h-4.368l-2.938-5.46c-.312-.572-.598-.927-.858-1.066-.242-.156-.615-.234-1.118-.234V18h-3.614V.684zm5.226 7.67c.884 0 1.578-.225 2.08-.676.52-.45.78-1.057.78-1.82 0-.693-.225-1.222-.676-1.586-.45-.364-1.109-.546-1.976-.546h-1.82v4.628h1.612zm12.157 9.672c-1.231 0-2.149-.009-2.756-.026V.684a154.37 154.37 0 013.302-.026c1.473 0 2.574.009 3.302.026 1.699.017 3.172.364 4.42 1.04a6.86 6.86 0 012.912 2.834c.693 1.23 1.04 2.67 1.04 4.316 0 1.803-.399 3.389-1.196 4.758-.78 1.37-1.889 2.435-3.328 3.198-1.421.763-3.077 1.153-4.966 1.17-.607.017-1.517.026-2.73.026zm2.704-3.302c1.751 0 3.129-.511 4.134-1.534 1.005-1.023 1.508-2.427 1.508-4.212 0-1.612-.433-2.851-1.3-3.718-.849-.867-2.08-1.3-3.692-1.3h-2.34v10.764h1.69zM177.324.684h3.77V18h-3.77V.684zm7.612 0h4.42l7.176 12.142V.684h3.458V18h-4.368l-7.228-12.22V18h-3.458V.684zm23.648 0h4.524L219.53 18h-3.9l-1.404-3.952h-6.812L206.088 18h-3.848L208.584.684zm4.524 10.14l-2.34-6.63-2.262 6.63h4.602zm10.407-6.864h-4.732V.684h13.208V3.96h-4.68V18h-3.796V3.96zM234.808.684h3.77V18h-3.77V.684zm15.439 17.654c-1.699 0-3.198-.373-4.498-1.118-1.3-.745-2.314-1.794-3.042-3.146-.711-1.352-1.066-2.903-1.066-4.654 0-1.768.355-3.328 1.066-4.68a7.644 7.644 0 013.016-3.146c1.3-.745 2.808-1.118 4.524-1.118 1.698 0 3.198.373 4.498 1.118a7.52 7.52 0 013.016 3.094c.71 1.335 1.066 2.877 1.066 4.628 0 1.785-.356 3.363-1.066 4.732a7.823 7.823 0 01-3.016 3.172c-1.3.745-2.8 1.118-4.498 1.118zm0-3.302c1.421 0 2.556-.511 3.406-1.534.866-1.023 1.3-2.383 1.3-4.082 0-1.11-.2-2.089-.598-2.938-.382-.867-.936-1.525-1.664-1.976-.711-.468-1.526-.702-2.444-.702-.919 0-1.742.234-2.47.702-.711.45-1.266 1.11-1.664 1.976-.382.85-.572 1.829-.572 2.938 0 1.11.19 2.089.572 2.938.398.85.953 1.508 1.664 1.976.71.468 1.534.702 2.47.702zM261.692.684h4.42l7.176 12.142V.684h3.458V18h-4.368L265.15 5.78V18h-3.458V.684z"/>
</svg>
